<?plantuml 1.2026.2?><svg xmlns="http://www.w3.org/2000/svg" xmlns:xlink="http://www.w3.org/1999/xlink" contentStyleType="text/css" data-diagram-type="CLASS" height="602px" preserveAspectRatio="none" style="width:552px;height:602px;background:#FFFFFF;" version="1.1" viewBox="0 0 552 602" width="552px" zoomAndPan="magnify"><title>Domain Model</title><defs/><g><g class="title" data-source-line="1"><text fill="#000000" font-family="sans-serif" font-size="14" font-weight="bold" lengthAdjust="spacing" textLength="103.8926" x="217.3622" y="23.5352">Domain Model</text></g><!--class Owner--><g class="entity" data-qualified-name="Owner" data-source-line="4" id="ent0002"><rect fill="#F1F1F1" height="146.9297" rx="2.5" ry="2.5" style="stroke:#181818;stroke-width:0.5;" width="132.7295" x="7" y="44.4883"/><ellipse cx="47.5823" cy="60.4883" fill="#ADD1B2" rx="11" ry="11" style="stroke:#181818;stroke-width:1;"/><path d="M50.0555,66.6313 Q49.4744,66.9302 48.8353,67.0796 Q48.1961,67.229 47.4905,67.229 Q44.9837,67.229 43.6639,65.5771 Q42.344,63.9253 42.344,60.8042 Q42.344,57.6748 43.6639,56.0229 Q44.9837,54.3711 47.4905,54.3711 Q48.1961,54.3711 48.8436,54.5205 Q49.491,54.6699 50.0555,54.9688 L50.0555,57.6914 Q49.4246,57.1104 48.8311,56.8406 Q48.2376,56.5708 47.6067,56.5708 Q46.262,56.5708 45.5772,57.6375 Q44.8924,58.7041 44.8924,60.8042 Q44.8924,62.896 45.5772,63.9626 Q46.262,65.0293 47.6067,65.0293 Q48.2376,65.0293 48.8311,64.7595 Q49.4246,64.4897 50.0555,63.9087 Z " fill="#000000"/><text fill="#000000" font-family="sans-serif" font-size="14" lengthAdjust="spacing" textLength="43.8799" x="67.2673" y="65.7793">Owner</text><line style="stroke:#181818;stroke-width:0.5;" x1="8" x2="138.7295" y1="76.4883" y2="76.4883"/><text fill="#000000" font-family="sans-serif" font-size="14" lengthAdjust="spacing" textLength="74.1631" x="13" y="94.0234">id : Integer</text><text fill="#000000" font-family="sans-serif" font-size="14" lengthAdjust="spacing" textLength="119.499" x="13" y="110.5117">firstName : String</text><text fill="#000000" font-family="sans-serif" font-size="14" lengthAdjust="spacing" textLength="116.3545" x="13" y="127">lastName : String</text><text fill="#000000" font-family="sans-serif" font-size="14" lengthAdjust="spacing" textLength="106.415" x="13" y="143.4883">address : String</text><text fill="#000000" font-family="sans-serif" font-size="14" lengthAdjust="spacing" textLength="77.0273" x="13" y="159.9766">city : String</text><text fill="#000000" font-family="sans-serif" font-size="14" lengthAdjust="spacing" textLength="120.7295" x="13" y="176.4648">telephone : String</text><line style="stroke:#181818;stroke-width:0.5;" x1="8" x2="138.7295" y1="183.418" y2="183.418"/></g><!--class Pet--><g class="entity" data-qualified-name="Pet" data-source-line="12" id="ent0003"><rect fill="#F1F1F1" height="97.4648" rx="2.5" ry="2.5" style="stroke:#181818;stroke-width:0.5;" width="155.3223" x="71.7" y="268.4183"/><ellipse cx="134.7239" cy="284.4183" fill="#ADD1B2" rx="11" ry="11" style="stroke:#181818;stroke-width:1;"/><path d="M137.1971,290.5613 Q136.616,290.8602 135.9769,291.0096 Q135.3377,291.159 134.6321,291.159 Q132.1253,291.159 130.8055,289.5071 Q129.4856,287.8553 129.4856,284.7342 Q129.4856,281.6048 130.8055,279.9529 Q132.1253,278.3011 134.6321,278.3011 Q135.3377,278.3011 135.9852,278.4505 Q136.6326,278.5999 137.1971,278.8988 L137.1971,281.6214 Q136.5662,281.0404 135.9727,280.7706 Q135.3792,280.5008 134.7483,280.5008 Q133.4036,280.5008 132.7188,281.5675 Q132.034,282.6341 132.034,284.7342 Q132.034,286.826 132.7188,287.8926 Q133.4036,288.9593 134.7483,288.9593 Q135.3792,288.9593 135.9727,288.6895 Q136.5662,288.4197 137.1971,287.8387 Z " fill="#000000"/><text fill="#000000" font-family="sans-serif" font-size="14" lengthAdjust="spacing" textLength="20.7744" x="155.2239" y="289.7093">Pet</text><line style="stroke:#181818;stroke-width:0.5;" x1="72.7" x2="226.0223" y1="300.4183" y2="300.4183"/><text fill="#000000" font-family="sans-serif" font-size="14" lengthAdjust="spacing" textLength="74.1631" x="77.7" y="317.9534">id : Integer</text><text fill="#000000" font-family="sans-serif" font-size="14" lengthAdjust="spacing" textLength="90.5488" x="77.7" y="334.4417">name : String</text><text fill="#000000" font-family="sans-serif" font-size="14" lengthAdjust="spacing" textLength="143.3223" x="77.7" y="350.93">birthDate : LocalDate</text><line style="stroke:#181818;stroke-width:0.5;" x1="72.7" x2="226.0223" y1="357.8831" y2="357.8831"/></g><!--class PetType--><g class="entity" data-qualified-name="PetType" data-source-line="17" id="ent0004"><rect fill="#F1F1F1" height="80.9766" rx="2.5" ry="2.5" style="stroke:#181818;stroke-width:0.5;" width="102.5488" x="175.09" y="77.4683"/><ellipse cx="197.7382" cy="93.4683" fill="#ADD1B2" rx="11" ry="11" style="stroke:#181818;stroke-width:1;"/><path d="M200.2114,99.6113 Q199.6303,99.9102 198.9912,100.0596 Q198.352,100.209 197.6464,100.209 Q195.1396,100.209 193.8198,98.5571 Q192.5,96.9053 192.5,93.7842 Q192.5,90.6548 193.8198,89.0029 Q195.1396,87.3511 197.6464,87.3511 Q198.352,87.3511 198.9995,87.5005 Q199.6469,87.6499 200.2114,87.9488 L200.2114,90.6714 Q199.5805,90.0904 198.987,89.8206 Q198.3935,89.5508 197.7627,89.5508 Q196.4179,89.5508 195.7331,90.6175 Q195.0483,91.6841 195.0483,93.7842 Q195.0483,95.876 195.7331,96.9426 Q196.4179,98.0093 197.7627,98.0093 Q198.3935,98.0093 198.987,97.7395 Q199.5805,97.4697 200.2114,96.8887 Z " fill="#000000"/><text fill="#000000" font-family="sans-serif" font-size="14" lengthAdjust="spacing" textLength="53.5527" x="213.4379" y="98.7593">PetType</text><line style="stroke:#181818;stroke-width:0.5;" x1="176.09" x2="276.6388" y1="109.4683" y2="109.4683"/><text fill="#000000" font-family="sans-serif" font-size="14" lengthAdjust="spacing" textLength="74.1631" x="181.09" y="127.0034">id : Integer</text><text fill="#000000" font-family="sans-serif" font-size="14" lengthAdjust="spacing" textLength="90.5488" x="181.09" y="143.4917">name : String</text><line style="stroke:#181818;stroke-width:0.5;" x1="176.09" x2="276.6388" y1="150.4448" y2="150.4448"/></g><!--class Role--><g class="entity" data-qualified-name="Role" data-source-line="21" id="ent0005"><rect fill="#F1F1F1" height="80.9766" rx="2.5" ry="2.5" style="stroke:#181818;stroke-width:0.5;" width="102.5488" x="428.09" y="276.6683"/><ellipse cx="461.6525" cy="292.6683" fill="#ADD1B2" rx="11" ry="11" style="stroke:#181818;stroke-width:1;"/><path d="M464.1256,298.8113 Q463.5446,299.1102 462.9054,299.2596 Q462.2663,299.409 461.5607,299.409 Q459.0539,299.409 457.734,297.7571 Q456.4142,296.1053 456.4142,292.9842 Q456.4142,289.8548 457.734,288.2029 Q459.0539,286.5511 461.5607,286.5511 Q462.2663,286.5511 462.9137,286.7005 Q463.5612,286.8499 464.1256,287.1488 L464.1256,289.8714 Q463.4948,289.2904 462.9013,289.0206 Q462.3078,288.7508 461.6769,288.7508 Q460.3322,288.7508 459.6474,289.8175 Q458.9626,290.8841 458.9626,292.9842 Q458.9626,295.076 459.6474,296.1426 Q460.3322,297.2093 461.6769,297.2093 Q462.3078,297.2093 462.9013,296.9395 Q463.4948,296.6697 464.1256,296.0887 Z " fill="#000000"/><text fill="#000000" font-family="sans-serif" font-size="14" lengthAdjust="spacing" textLength="29.2988" x="479.7775" y="297.9593">Role</text><line style="stroke:#181818;stroke-width:0.5;" x1="429.09" x2="529.6388" y1="308.6683" y2="308.6683"/><text fill="#000000" font-family="sans-serif" font-size="14" lengthAdjust="spacing" textLength="74.1631" x="434.09" y="326.2034">id : Integer</text><text fill="#000000" font-family="sans-serif" font-size="14" lengthAdjust="spacing" textLength="90.5488" x="434.09" y="342.6917">name : String</text><line style="stroke:#181818;stroke-width:0.5;" x1="429.09" x2="529.6388" y1="349.6448" y2="349.6448"/></g><!--class Specialty--><g class="entity" data-qualified-name="Specialty" data-source-line="25" id="ent0006"><rect fill="#F1F1F1" height="97.4648" rx="2.5" ry="2.5" style="stroke:#181818;stroke-width:0.5;" width="141.3359" x="256.7" y="451.1283"/><ellipse cx="294.037" cy="467.1283" fill="#ADD1B2" rx="11" ry="11" style="stroke:#181818;stroke-width:1;"/><path d="M296.5101,473.2713 Q295.9291,473.5702 295.2899,473.7196 Q294.6507,473.869 293.9452,473.869 Q291.4383,473.869 290.1185,472.2171 Q288.7987,470.5653 288.7987,467.4442 Q288.7987,464.3148 290.1185,462.6629 Q291.4383,461.0111 293.9452,461.0111 Q294.6507,461.0111 295.2982,461.1605 Q295.9457,461.3099 296.5101,461.6088 L296.5101,464.3314 Q295.8792,463.7504 295.2857,463.4806 Q294.6922,463.2108 294.0614,463.2108 Q292.7167,463.2108 292.0318,464.2775 Q291.347,465.3441 291.347,467.4442 Q291.347,469.536 292.0318,470.6026 Q292.7167,471.6693 294.0614,471.6693 Q294.6922,471.6693 295.2857,471.3995 Q295.8792,471.1297 296.5101,470.5487 Z " fill="#000000"/><text fill="#000000" font-family="sans-serif" font-size="14" lengthAdjust="spacing" textLength="59.6982" x="313.0007" y="472.4193">Specialty</text><line style="stroke:#181818;stroke-width:0.5;" x1="257.7" x2="397.0359" y1="483.1283" y2="483.1283"/><text fill="#000000" font-family="sans-serif" font-size="14" lengthAdjust="spacing" textLength="74.1631" x="262.7" y="500.6634">id : Integer</text><text fill="#000000" font-family="sans-serif" font-size="14" lengthAdjust="spacing" textLength="90.5488" x="262.7" y="517.1517">name : String</text><text fill="#000000" font-family="sans-serif" font-size="14" lengthAdjust="spacing" textLength="129.3359" x="262.7" y="533.64">description : String</text><line style="stroke:#181818;stroke-width:0.5;" x1="257.7" x2="397.0359" y1="540.5931" y2="540.5931"/></g><!--class User--><g class="entity" data-qualified-name="User" data-source-line="30" id="ent0007"><rect fill="#F1F1F1" height="97.4648" rx="2.5" ry="2.5" style="stroke:#181818;stroke-width:0.5;" width="132.4971" x="413.12" y="69.2183"/><ellipse cx="459.9359" cy="85.2183" fill="#ADD1B2" rx="11" ry="11" style="stroke:#181818;stroke-width:1;"/><path d="M462.4091,91.3613 Q461.828,91.6602 461.1888,91.8096 Q460.5497,91.959 459.8441,91.959 Q457.3373,91.959 456.0175,90.3071 Q454.6976,88.6553 454.6976,85.5342 Q454.6976,82.4048 456.0175,80.7529 Q457.3373,79.1011 459.8441,79.1011 Q460.5497,79.1011 461.1971,79.2505 Q461.8446,79.3999 462.4091,79.6988 L462.4091,82.4214 Q461.7782,81.8404 461.1847,81.5706 Q460.5912,81.3008 459.9603,81.3008 Q458.6156,81.3008 457.9308,82.3675 Q457.246,83.4341 457.246,85.5342 Q457.246,87.626 457.9308,88.6926 Q458.6156,89.7593 459.9603,89.7593 Q460.5912,89.7593 461.1847,89.4895 Q461.7782,89.2197 462.4091,88.6387 Z " fill="#000000"/><text fill="#000000" font-family="sans-serif" font-size="14" lengthAdjust="spacing" textLength="30.3652" x="480.4359" y="90.5093">User</text><line style="stroke:#181818;stroke-width:0.5;" x1="414.12" x2="544.6171" y1="101.2183" y2="101.2183"/><text fill="#000000" font-family="sans-serif" font-size="14" lengthAdjust="spacing" textLength="119.9023" x="419.12" y="118.7534">username : String</text><text fill="#000000" font-family="sans-serif" font-size="14" lengthAdjust="spacing" textLength="118.002" x="419.12" y="135.2417">password : String</text><text fill="#000000" font-family="sans-serif" font-size="14" lengthAdjust="spacing" textLength="120.4971" x="419.12" y="151.73">enabled : Boolean</text><line style="stroke:#181818;stroke-width:0.5;" x1="414.12" x2="544.6171" y1="158.6831" y2="158.6831"/></g><!--class Vet--><g class="entity" data-qualified-name="Vet" data-source-line="35" id="ent0008"><rect fill="#F1F1F1" height="97.4648" rx="2.5" ry="2.5" style="stroke:#181818;stroke-width:0.5;" width="131.499" x="261.62" y="268.4183"/><ellipse cx="312.0248" cy="284.4183" fill="#ADD1B2" rx="11" ry="11" style="stroke:#181818;stroke-width:1;"/><path d="M314.4979,290.5613 Q313.9169,290.8602 313.2777,291.0096 Q312.6386,291.159 311.933,291.159 Q309.4262,291.159 308.1063,289.5071 Q306.7865,287.8553 306.7865,284.7342 Q306.7865,281.6048 308.1063,279.9529 Q309.4262,278.3011 311.933,278.3011 Q312.6386,278.3011 313.286,278.4505 Q313.9335,278.5999 314.4979,278.8988 L314.4979,281.6214 Q313.8671,281.0404 313.2736,280.7706 Q312.6801,280.5008 312.0492,280.5008 Q310.7045,280.5008 310.0197,281.5675 Q309.3348,282.6341 309.3348,284.7342 Q309.3348,286.826 310.0197,287.8926 Q310.7045,288.9593 312.0492,288.9593 Q312.6801,288.9593 313.2736,288.6895 Q313.8671,288.4197 314.4979,287.8387 Z " fill="#000000"/><text fill="#000000" font-family="sans-serif" font-size="14" lengthAdjust="spacing" textLength="22.1895" x="332.5248" y="289.7093">Vet</text><line style="stroke:#181818;stroke-width:0.5;" x1="262.62" x2="392.119" y1="300.4183" y2="300.4183"/><text fill="#000000" font-family="sans-serif" font-size="14" lengthAdjust="spacing" textLength="74.1631" x="267.62" y="317.9534">id : Integer</text><text fill="#000000" font-family="sans-serif" font-size="14" lengthAdjust="spacing" textLength="119.499" x="267.62" y="334.4417">firstName : String</text><text fill="#000000" font-family="sans-serif" font-size="14" lengthAdjust="spacing" textLength="116.3545" x="267.62" y="350.93">lastName : String</text><line style="stroke:#181818;stroke-width:0.5;" x1="262.62" x2="392.119" y1="357.8831" y2="357.8831"/></g><!--class Visit--><g class="entity" data-qualified-name="Visit" data-source-line="40" id="ent0009"><rect fill="#F1F1F1" height="113.9531" rx="2.5" ry="2.5" style="stroke:#181818;stroke-width:0.5;" width="141.3359" x="80.7" y="442.8883"/><ellipse cx="132.3079" cy="458.8883" fill="#ADD1B2" rx="11" ry="11" style="stroke:#181818;stroke-width:1;"/><path d="M134.7811,465.0313 Q134.2,465.3302 133.5608,465.4796 Q132.9217,465.629 132.2161,465.629 Q129.7093,465.629 128.3895,463.9771 Q127.0696,462.3253 127.0696,459.2042 Q127.0696,456.0748 128.3895,454.4229 Q129.7093,452.7711 132.2161,452.7711 Q132.9217,452.7711 133.5691,452.9205 Q134.2166,453.0699 134.7811,453.3688 L134.7811,456.0914 Q134.1502,455.5104 133.5567,455.2406 Q132.9632,454.9708 132.3323,454.9708 Q130.9876,454.9708 130.3028,456.0375 Q129.618,457.1041 129.618,459.2042 Q129.618,461.296 130.3028,462.3626 Q130.9876,463.4293 132.3323,463.4293 Q132.9632,463.4293 133.5567,463.1595 Q134.1502,462.8897 134.7811,462.3087 Z " fill="#000000"/><text fill="#000000" font-family="sans-serif" font-size="14" lengthAdjust="spacing" textLength="29.6201" x="152.8079" y="464.1793">Visit</text><line style="stroke:#181818;stroke-width:0.5;" x1="81.7" x2="221.0359" y1="474.8883" y2="474.8883"/><text fill="#000000" font-family="sans-serif" font-size="14" lengthAdjust="spacing" textLength="74.1631" x="86.7" y="492.4234">id : Integer</text><text fill="#000000" font-family="sans-serif" font-size="14" lengthAdjust="spacing" textLength="109.1357" x="86.7" y="508.9117">date : LocalDate</text><text fill="#000000" font-family="sans-serif" font-size="14" lengthAdjust="spacing" textLength="112.2256" x="86.7" y="525.4">time : LocalTime</text><text fill="#000000" font-family="sans-serif" font-size="14" lengthAdjust="spacing" textLength="129.3359" x="86.7" y="541.8883">description : String</text><line style="stroke:#181818;stroke-width:0.5;" x1="81.7" x2="221.0359" y1="548.8414" y2="548.8414"/></g><!--link Owner to Pet--><g class="link" data-entity-1="ent0002" data-entity-2="ent0003" data-link-type="association" data-source-line="48" id="lnk10"><path codeLine="48" d="M101.45,191.8283 C111.26,217.2783 122.02,245.1883 130.85,268.1083" fill="none" id="Owner-Pet" style="stroke:#181818;stroke-width:1;"/><text fill="#000000" font-family="sans-serif" font-size="13" lengthAdjust="spacing" textLength="38.6318" x="119.17" y="234.9866">owner</text><text fill="#000000" font-family="sans-serif" font-size="13" lengthAdjust="spacing" textLength="8.2202" x="95.6805" y="211.9127">1</text><text fill="#000000" font-family="sans-serif" font-size="13" lengthAdjust="spacing" textLength="22.7119" x="104.7501" y="257.7472">0..*</text></g><!--link Pet to Visit--><g class="link" data-entity-1="ent0003" data-entity-2="ent0009" data-link-type="association" data-source-line="49" id="lnk11"><path codeLine="49" d="M149.9,366.1083 C150.16,389.6283 150.47,418.1183 150.74,442.6583" fill="none" id="Pet-Visit" style="stroke:#181818;stroke-width:1;"/><text fill="#000000" font-family="sans-serif" font-size="13" lengthAdjust="spacing" textLength="20.2871" x="151.36" y="409.4566">pet</text><text fill="#000000" font-family="sans-serif" font-size="13" lengthAdjust="spacing" textLength="8.2202" x="141.4497" y="386.284">1</text><text fill="#000000" font-family="sans-serif" font-size="13" lengthAdjust="spacing" textLength="22.7119" x="127.2958" y="431.956">0..*</text></g><!--link PetType to Pet--><g class="link" data-entity-1="ent0004" data-entity-2="ent0003" data-link-type="association" data-source-line="50" id="lnk12"><path codeLine="50" d="M210.78,158.8583 C198.48,190.3683 181.26,234.4583 168.19,267.9483" fill="none" id="PetType-Pet" style="stroke:#181818;stroke-width:1;"/><text fill="#000000" font-family="sans-serif" font-size="13" lengthAdjust="spacing" textLength="27.0791" x="186.56" y="234.9866">type</text><text fill="#000000" font-family="sans-serif" font-size="13" lengthAdjust="spacing" textLength="8.2202" x="199.798" y="178.8619">1</text><text fill="#000000" font-family="sans-serif" font-size="13" lengthAdjust="spacing" textLength="22.7119" x="147.341" y="257.5647">0..*</text></g><!--link User to Role--><g class="link" data-entity-1="ent0007" data-entity-2="ent0005" data-link-type="association" data-source-line="51" id="lnk13"><path codeLine="51" d="M479.36,166.9383 C479.36,200.4583 479.36,244.6883 479.36,276.2683" fill="none" id="User-Role" style="stroke:#181818;stroke-width:1;"/><text fill="#000000" font-family="sans-serif" font-size="13" lengthAdjust="spacing" textLength="27.2568" x="480.36" y="234.9866">user</text><text fill="#000000" font-family="sans-serif" font-size="13" lengthAdjust="spacing" textLength="8.2202" x="470.8361" y="187.118">1</text><text fill="#000000" font-family="sans-serif" font-size="13" lengthAdjust="spacing" textLength="22.7119" x="455.5963" y="265.848">0..*</text></g><!--link Vet to Specialty--><g class="link" data-entity-1="ent0008" data-entity-2="ent0006" data-link-type="association" data-source-line="52" id="lnk14"><path codeLine="52" d="M327.36,366.1083 C327.36,392.2483 327.36,424.5083 327.36,450.6883" fill="none" id="Vet-Specialty" style="stroke:#181818;stroke-width:1;"/><text fill="#000000" font-family="sans-serif" font-size="13" lengthAdjust="spacing" textLength="65.895" x="328.36" y="409.4566">specialties</text><text fill="#000000" font-family="sans-serif" font-size="13" lengthAdjust="spacing" textLength="8.2202" x="318.836" y="386.284">1</text><text fill="#000000" font-family="sans-serif" font-size="13" lengthAdjust="spacing" textLength="22.7119" x="303.8621" y="440.3089">0..*</text></g><!--link Vet to Visit--><g class="link" data-entity-1="ent0008" data-entity-2="ent0009" data-link-type="association" data-source-line="53" id="lnk15"><path codeLine="53" d="M280.66,366.1083 C257.75,389.6283 230,418.1183 206.1,442.6583" fill="none" id="Vet-Visit" style="stroke:#FF0000;stroke-width:1;"/><text fill="#FF0000" font-family="sans-serif" font-size="13" lengthAdjust="spacing" textLength="18.8335" x="250.9" y="409.4566">vet</text><text fill="#000000" font-family="sans-serif" font-size="13" lengthAdjust="spacing" textLength="8.2202" x="265.8607" y="386.284">1</text><text fill="#000000" font-family="sans-serif" font-size="13" lengthAdjust="spacing" textLength="22.7119" x="189.7488" y="431.956">0..*</text></g><g class="caption" data-source-line="2"><text fill="#FF0000" font-family="sans-serif" font-size="14" lengthAdjust="spacing" textLength="41.9658" x="207.204" y="577.3766">added</text><text fill="#000000" font-family="sans-serif" font-size="14" lengthAdjust="spacing" textLength="14.3281" x="253.5996" y="577.3766">or</text><text fill="#FF0000" font-family="sans-serif" font-size="14" lengthAdjust="spacing" text-decoration="line-through" textLength="59.0557" x="272.3574" y="577.3766">removed</text></g><g class="footer" data-source-line="47"><text fill="#888888" font-family="sans-serif" font-size="10" lengthAdjust="spacing" textLength="358.4961" x="90.0605" y="591.9977">domain/*.java -&gt; petclinic-backend/docs/generated/DomainModel.puml</text></g><?plantuml-src bLCzRy8m4DtzAqvqGqhIhX7AKB5KwfSAPQaw6Fi0juuTsGQ4glxtNX88WQGgtSxlxjvzFGSLDCBOvbmPUB0IDHEy2CeQ60chhKiToenBYNAKL406rhLz8vyvpEsc3F3P8OWneRdtyBGrwE2B0IW9AToPW4jqz5mevyCZpv7GIN3AB0cab0v6jHqIKmiIAkpQxu0QYvKrhRplVVrd37tLpLcHkN9XDUQX1E-juBgqsoJJNO5_4nqINgp-H_IaGA6uffakw5IY5qxL5-emlVhzijTad6SM5B6rJhOnD7okiOHkBVNCJKCrwr_SXMThM9HNlJpoVDTqHPKtq9JituTb2si3JIehsIR3-8DlE4GP51Y4LaQ9QCx59ngPI2jyiaGI8HMHIItqIkTniSurg_Kvk1b05C7WEew7WqepATZImqhxr5kFb9Qrs44OVVc17AmwoActqaPQNOZDEkn7BQJWzxP2Vunykw9FzzxfflKXDnYQN_W3?></g></svg>