<?plantuml 1.2026.2?><svg xmlns="http://www.w3.org/2000/svg" xmlns:xlink="http://www.w3.org/1999/xlink" contentStyleType="text/css" data-diagram-type="CLASS" height="843px" preserveAspectRatio="none" style="width:432px;height:843px;background:#FFFFFF;" version="1.1" viewBox="0 0 432 843" width="432px" zoomAndPan="magnify"><title>Domain Model - Diff</title><defs/><g><g class="title" data-source-line="3"><text fill="#000000" font-family="sans-serif" font-size="14" font-weight="bold" lengthAdjust="spacing" textLength="149.3242" x="137.394" y="23.5352">Domain Model - Diff</text></g><!--class Owner--><g class="entity" data-qualified-name="Owner" data-source-line="9" id="ent0002"><a href="src://petclinic-backend/src/main/java/victor/training/petclinic/domain/Owner.java:28" target="_top" title="Click to open in editor" xlink:actuate="onRequest" xlink:href="src://petclinic-backend/src/main/java/victor/training/petclinic/domain/Owner.java:28" xlink:show="new" xlink:title="Click to open in editor" xlink:type="simple"><rect fill="#F1F1F1" height="138.9297" rx="2.5" ry="2.5" style="stroke:#181818;stroke-width:0.5;" width="132.7295" x="142.4932" y="44.4883"/><ellipse cx="183.0755" cy="60.4883" fill="#ADD1B2" rx="11" ry="11" style="stroke:#181818;stroke-width:1;"/><path d="M185.5487,66.6313 Q184.9676,66.9302 184.3284,67.0796 Q183.6893,67.229 182.9837,67.229 Q180.4769,67.229 179.1571,65.5771 Q177.8372,63.9253 177.8372,60.8042 Q177.8372,57.6748 179.1571,56.0229 Q180.4769,54.3711 182.9837,54.3711 Q183.6893,54.3711 184.3367,54.5205 Q184.9842,54.6699 185.5487,54.9688 L185.5487,57.6914 Q184.9178,57.1104 184.3243,56.8406 Q183.7308,56.5708 183.0999,56.5708 Q181.7552,56.5708 181.0704,57.6375 Q180.3856,58.7041 180.3856,60.8042 Q180.3856,62.896 181.0704,63.9626 Q181.7552,65.0293 183.0999,65.0293 Q183.7308,65.0293 184.3243,64.7595 Q184.9178,64.4897 185.5487,63.9087 Z " fill="#000000"/><text fill="#000000" font-family="sans-serif" font-size="14" lengthAdjust="spacing" textLength="43.8799" x="202.7605" y="65.7793">Owner</text><line style="stroke:#181818;stroke-width:0.5;" x1="143.4932" x2="274.2227" y1="76.4883" y2="76.4883"/><text fill="#000000" font-family="sans-serif" font-size="14" lengthAdjust="spacing" textLength="74.1631" x="148.4932" y="94.0234">id : Integer</text><text fill="#000000" font-family="sans-serif" font-size="14" lengthAdjust="spacing" textLength="119.499" x="148.4932" y="110.5117">firstName : String</text><text fill="#000000" font-family="sans-serif" font-size="14" lengthAdjust="spacing" textLength="116.3545" x="148.4932" y="127">lastName : String</text><text fill="#000000" font-family="sans-serif" font-size="14" lengthAdjust="spacing" textLength="106.415" x="148.4932" y="143.4883">address : String</text><text fill="#000000" font-family="sans-serif" font-size="14" lengthAdjust="spacing" textLength="77.0273" x="148.4932" y="159.9766">city : String</text><text fill="#000000" font-family="sans-serif" font-size="14" lengthAdjust="spacing" textLength="120.7295" x="148.4932" y="176.4648">telephone : String</text></a></g><!--class Pet--><g class="entity" data-qualified-name="Pet" data-source-line="17" id="ent0003"><a href="src://petclinic-backend/src/main/java/victor/training/petclinic/domain/Pet.java:29" target="_top" title="Click to open in editor" xlink:actuate="onRequest" xlink:href="src://petclinic-backend/src/main/java/victor/training/petclinic/domain/Pet.java:29" xlink:show="new" xlink:title="Click to open in editor" xlink:type="simple"><rect fill="#F1F1F1" height="89.4648" rx="2.5" ry="2.5" style="stroke:#181818;stroke-width:0.5;" width="155.3223" x="131.1932" y="243.4183"/><ellipse cx="194.2171" cy="259.4183" fill="#ADD1B2" rx="11" ry="11" style="stroke:#181818;stroke-width:1;"/><path d="M196.6903,265.5613 Q196.1092,265.8602 195.47,266.0096 Q194.8309,266.159 194.1253,266.159 Q191.6185,266.159 190.2987,264.5071 Q188.9788,262.8553 188.9788,259.7342 Q188.9788,256.6048 190.2987,254.9529 Q191.6185,253.3011 194.1253,253.3011 Q194.8309,253.3011 195.4783,253.4505 Q196.1258,253.5999 196.6903,253.8987 L196.6903,256.6214 Q196.0594,256.0404 195.4659,255.7706 Q194.8724,255.5008 194.2415,255.5008 Q192.8968,255.5008 192.212,256.5675 Q191.5272,257.6341 191.5272,259.7342 Q191.5272,261.826 192.212,262.8926 Q192.8968,263.9593 194.2415,263.9593 Q194.8724,263.9593 195.4659,263.6895 Q196.0594,263.4197 196.6903,262.8387 Z " fill="#000000"/><text fill="#000000" font-family="sans-serif" font-size="14" lengthAdjust="spacing" textLength="20.7744" x="214.7171" y="264.7093">Pet</text><line style="stroke:#181818;stroke-width:0.5;" x1="132.1932" x2="285.5154" y1="275.4183" y2="275.4183"/><text fill="#000000" font-family="sans-serif" font-size="14" lengthAdjust="spacing" textLength="74.1631" x="137.1932" y="292.9534">id : Integer</text><text fill="#000000" font-family="sans-serif" font-size="14" lengthAdjust="spacing" textLength="90.5488" x="137.1932" y="309.4417">name : String</text><text fill="#000000" font-family="sans-serif" font-size="14" lengthAdjust="spacing" textLength="143.3223" x="137.1932" y="325.93">birthDate : LocalDate</text></a></g><!--class PetType--><g class="entity" data-qualified-name="PetType" data-source-line="22" id="ent0004"><a href="src://petclinic-backend/src/main/java/victor/training/petclinic/domain/PetType.java:8" target="_top" title="Click to open in editor" xlink:actuate="onRequest" xlink:href="src://petclinic-backend/src/main/java/victor/training/petclinic/domain/PetType.java:8" xlink:show="new" xlink:title="Click to open in editor" xlink:type="simple"><rect fill="#F1F1F1" height="72.9766" rx="2.5" ry="2.5" style="stroke:#181818;stroke-width:0.5;" width="102.5488" x="79.5832" y="409.3783"/><ellipse cx="102.2314" cy="425.3783" fill="#ADD1B2" rx="11" ry="11" style="stroke:#181818;stroke-width:1;"/><path d="M104.7046,431.5213 Q104.1235,431.8202 103.4844,431.9696 Q102.8452,432.119 102.1396,432.119 Q99.6328,432.119 98.313,430.4671 Q96.9931,428.8153 96.9931,425.6942 Q96.9931,422.5648 98.313,420.9129 Q99.6328,419.2611 102.1396,419.2611 Q102.8452,419.2611 103.4927,419.4105 Q104.1401,419.5599 104.7046,419.8588 L104.7046,422.5814 Q104.0737,422.0004 103.4802,421.7306 Q102.8867,421.4608 102.2558,421.4608 Q100.9111,421.4608 100.2263,422.5275 Q99.5415,423.5941 99.5415,425.6942 Q99.5415,427.786 100.2263,428.8526 Q100.9111,429.9193 102.2558,429.9193 Q102.8867,429.9193 103.4802,429.6495 Q104.0737,429.3797 104.7046,428.7987 Z " fill="#000000"/><text fill="#000000" font-family="sans-serif" font-size="14" lengthAdjust="spacing" textLength="53.5527" x="117.931" y="430.6693">PetType</text><line style="stroke:#181818;stroke-width:0.5;" x1="80.5832" x2="181.132" y1="441.3783" y2="441.3783"/><text fill="#000000" font-family="sans-serif" font-size="14" lengthAdjust="spacing" textLength="74.1631" x="85.5832" y="458.9134">id : Integer</text><text fill="#000000" font-family="sans-serif" font-size="14" lengthAdjust="spacing" textLength="90.5488" x="85.5832" y="475.4017">name : String</text></a></g><!--class Specialty--><g class="entity" data-qualified-name="Specialty" data-source-line="26" id="ent0005"><a href="src://petclinic-backend/src/main/java/victor/training/petclinic/domain/Specialty.java:7" target="_top" title="Click to open in editor" xlink:actuate="onRequest" xlink:href="src://petclinic-backend/src/main/java/victor/training/petclinic/domain/Specialty.java:7" xlink:show="new" xlink:title="Click to open in editor" xlink:type="simple"><rect fill="#F1F1F1" height="89.4648" rx="2.5" ry="2.5" style="stroke:#181818;stroke-width:0.5;" width="141.3359" x="217.1932" y="708.3083"/><ellipse cx="254.5301" cy="724.3083" fill="#ADD1B2" rx="11" ry="11" style="stroke:#181818;stroke-width:1;"/><path d="M257.0033,730.4513 Q256.4222,730.7502 255.7831,730.8996 Q255.1439,731.049 254.4383,731.049 Q251.9315,731.049 250.6117,729.3971 Q249.2919,727.7453 249.2919,724.6242 Q249.2919,721.4948 250.6117,719.8429 Q251.9315,718.1911 254.4383,718.1911 Q255.1439,718.1911 255.7914,718.3405 Q256.4388,718.4899 257.0033,718.7887 L257.0033,721.5114 Q256.3724,720.9304 255.7789,720.6606 Q255.1854,720.3908 254.5546,720.3908 Q253.2098,720.3908 252.525,721.4575 Q251.8402,722.5241 251.8402,724.6242 Q251.8402,726.716 252.525,727.7826 Q253.2098,728.8493 254.5546,728.8493 Q255.1854,728.8493 255.7789,728.5795 Q256.3724,728.3097 257.0033,727.7287 Z " fill="#000000"/><text fill="#000000" font-family="sans-serif" font-size="14" lengthAdjust="spacing" textLength="59.6982" x="273.4939" y="729.5993">Specialty</text><line style="stroke:#181818;stroke-width:0.5;" x1="218.1932" x2="357.5291" y1="740.3083" y2="740.3083"/><text fill="#000000" font-family="sans-serif" font-size="14" lengthAdjust="spacing" textLength="74.1631" x="223.1932" y="757.8434">id : Integer</text><text fill="#000000" font-family="sans-serif" font-size="14" lengthAdjust="spacing" textLength="90.5488" x="223.1932" y="774.3317">name : String</text><text fill="#000000" font-family="sans-serif" font-size="14" lengthAdjust="spacing" textLength="129.3359" x="223.1932" y="790.82">description : String</text></a></g><!--class Vet--><g class="entity" data-qualified-name="Vet" data-source-line="31" id="ent0006"><a href="src://petclinic-backend/src/main/java/victor/training/petclinic/domain/Vet.java:11" target="_top" title="Click to open in editor" xlink:actuate="onRequest" xlink:href="src://petclinic-backend/src/main/java/victor/training/petclinic/domain/Vet.java:11" xlink:show="new" xlink:title="Click to open in editor" xlink:type="simple"><rect fill="#F1F1F1" height="89.4648" rx="2.5" ry="2.5" style="stroke:#181818;stroke-width:0.5;" width="131.499" x="222.1032" y="558.8383"/><ellipse cx="272.508" cy="574.8383" fill="#ADD1B2" rx="11" ry="11" style="stroke:#181818;stroke-width:1;"/><path d="M274.9811,580.9813 Q274.4001,581.2802 273.7609,581.4296 Q273.1217,581.579 272.4162,581.579 Q269.9093,581.579 268.5895,579.9271 Q267.2697,578.2753 267.2697,575.1542 Q267.2697,572.0248 268.5895,570.3729 Q269.9093,568.7211 272.4162,568.7211 Q273.1217,568.7211 273.7692,568.8705 Q274.4167,569.0199 274.9811,569.3187 L274.9811,572.0414 Q274.3503,571.4604 273.7567,571.1906 Q273.1632,570.9208 272.5324,570.9208 Q271.1877,570.9208 270.5028,571.9875 Q269.818,573.0541 269.818,575.1542 Q269.818,577.246 270.5028,578.3126 Q271.1877,579.3793 272.5324,579.3793 Q273.1632,579.3793 273.7567,579.1095 Q274.3503,578.8397 274.9811,578.2587 Z " fill="#000000"/><text fill="#000000" font-family="sans-serif" font-size="14" lengthAdjust="spacing" textLength="22.1895" x="293.008" y="580.1293">Vet</text><line style="stroke:#181818;stroke-width:0.5;" x1="223.1032" x2="352.6022" y1="590.8383" y2="590.8383"/><text fill="#000000" font-family="sans-serif" font-size="14" lengthAdjust="spacing" textLength="74.1631" x="228.1032" y="608.3734">id : Integer</text><text fill="#000000" font-family="sans-serif" font-size="14" lengthAdjust="spacing" textLength="119.499" x="228.1032" y="624.8617">firstName : String</text><text fill="#000000" font-family="sans-serif" font-size="14" lengthAdjust="spacing" textLength="116.3545" x="228.1032" y="641.35">lastName : String</text></a></g><!--class Visit--><g class="entity" data-qualified-name="Visit" data-source-line="36" id="ent0007"><a href="src://petclinic-backend/src/main/java/victor/training/petclinic/domain/Visit.java:11" target="_top" title="Click to open in editor" xlink:actuate="onRequest" xlink:href="src://petclinic-backend/src/main/java/victor/training/petclinic/domain/Visit.java:11" xlink:show="new" xlink:title="Click to open in editor" xlink:type="simple"><rect fill="#F1F1F1" height="105.9531" rx="2.5" ry="2.5" style="stroke:#181818;stroke-width:0.5;" width="141.3359" x="217.1932" y="392.8883"/><ellipse cx="268.8011" cy="408.8883" fill="#ADD1B2" rx="11" ry="11" style="stroke:#181818;stroke-width:1;"/><path d="M271.2742,415.0313 Q270.6932,415.3302 270.054,415.4796 Q269.4149,415.629 268.7093,415.629 Q266.2025,415.629 264.8826,413.9771 Q263.5628,412.3253 263.5628,409.2042 Q263.5628,406.0748 264.8826,404.4229 Q266.2025,402.7711 268.7093,402.7711 Q269.4149,402.7711 270.0623,402.9205 Q270.7098,403.0699 271.2742,403.3688 L271.2742,406.0914 Q270.6434,405.5104 270.0499,405.2406 Q269.4564,404.9708 268.8255,404.9708 Q267.4808,404.9708 266.796,406.0375 Q266.1112,407.1041 266.1112,409.2042 Q266.1112,411.296 266.796,412.3626 Q267.4808,413.4293 268.8255,413.4293 Q269.4564,413.4293 270.0499,413.1595 Q270.6434,412.8897 271.2742,412.3087 Z " fill="#000000"/><text fill="#000000" font-family="sans-serif" font-size="14" lengthAdjust="spacing" textLength="29.6201" x="289.3011" y="414.1793">Visit</text><line style="stroke:#181818;stroke-width:0.5;" x1="218.1932" x2="357.5291" y1="424.8883" y2="424.8883"/><text fill="#000000" font-family="sans-serif" font-size="14" lengthAdjust="spacing" textLength="74.1631" x="223.1932" y="442.4234">id : Integer</text><text fill="#000000" font-family="sans-serif" font-size="14" lengthAdjust="spacing" textLength="109.1357" x="223.1932" y="458.9117">date : LocalDate</text><text fill="#000000" font-family="sans-serif" font-size="14" lengthAdjust="spacing" textLength="112.2256" x="223.1932" y="475.4">time : LocalTime</text><text fill="#000000" font-family="sans-serif" font-size="14" lengthAdjust="spacing" textLength="129.3359" x="223.1932" y="491.8883">description : String</text></a></g><!--link Owner to Pet--><g class="link" data-entity-1="ent0002" data-entity-2="ent0003" data-link-type="dependency" data-source-line="43" id="lnk8"><path codeLine="43" d="M208.8532,189.5083 C208.8532,209.5783 208.8532,218.9783 208.8532,237.0883" fill="none" id="Owner-Pet" style="stroke:#181818;stroke-width:1;"/><polygon fill="#181818" points="208.8532,183.5083,204.8532,192.5083,208.8532,188.5083,212.8532,192.5083,208.8532,183.5083" style="stroke:#181818;stroke-width:1;"/><polygon fill="#181818" points="208.8532,243.0883,212.8532,234.0883,208.8532,238.0883,204.8532,234.0883,208.8532,243.0883" style="stroke:#181818;stroke-width:1;"/><text fill="#000000" font-family="sans-serif" font-size="13" lengthAdjust="spacing" textLength="38.6318" x="168.9259" y="204.039">owner</text><text fill="#000000" font-family="sans-serif" font-size="13" lengthAdjust="spacing" textLength="37.2925" x="169.0426" y="232.6318">* pets</text></g><!--link Pet to PetType--><g class="link" data-entity-1="ent0003" data-entity-2="ent0004" data-link-type="dependency" data-source-line="44" id="lnk9"><path codeLine="44" d="M186.7132,333.3583 C174.7332,357.2683 162.8103,381.0736 151.5403,403.5736" fill="none" id="Pet-to-PetType" style="stroke:#181818;stroke-width:1;"/><polygon fill="#181818" points="148.8532,408.9383,156.4603,402.6827,151.0924,404.4677,149.3074,399.0999,148.8532,408.9383" style="stroke:#181818;stroke-width:1;"/><text fill="#000000" font-family="sans-serif" font-size="13" lengthAdjust="spacing" textLength="6.2651" x="177.1964" y="353.3605">*</text><text fill="#000000" font-family="sans-serif" font-size="13" lengthAdjust="spacing" textLength="27.0791" x="122.661" y="398.6205">type</text></g><!--link Pet to Visit--><g class="link" data-entity-1="ent0003" data-entity-2="ent0007" data-link-type="dependency" data-source-line="45" id="lnk10"><path codeLine="45" d="M233.9978,338.7091 C243.3478,357.1391 248.8599,367.9868 258.5999,387.1968" fill="none" id="Pet-Visit" style="stroke:#181818;stroke-width:1;"/><polygon fill="#181818" points="231.2832,333.3583,231.7879,343.1942,233.5453,337.8173,238.9223,339.5747,231.2832,333.3583" style="stroke:#181818;stroke-width:1;"/><polygon fill="#181818" points="261.3132,392.5483,260.8108,382.7122,259.0521,388.0888,253.6756,386.33,261.3132,392.5483" style="stroke:#181818;stroke-width:1;"/><text fill="#000000" font-family="sans-serif" font-size="13" lengthAdjust="spacing" textLength="20.2871" x="213.0512" y="353.3605">pet</text><text fill="#000000" font-family="sans-serif" font-size="13" lengthAdjust="spacing" textLength="42.7388" x="212.9736" y="381.9653">* visits</text></g><!--link Vet to Specialty--><g class="link" data-entity-1="ent0006" data-entity-2="ent0005" data-link-type="dependency" data-source-line="46" id="lnk11"><path codeLine="46" d="M287.8532,648.4183 C287.8532,667.1783 287.8532,683.0483 287.8532,701.8483" fill="none" id="Vet-to-Specialty" style="stroke:#181818;stroke-width:1;"/><polygon fill="#181818" points="287.8532,707.8483,291.8532,698.8483,287.8532,702.8483,283.8532,698.8483,287.8532,707.8483" style="stroke:#181818;stroke-width:1;"/><text fill="#000000" font-family="sans-serif" font-size="13" lengthAdjust="spacing" textLength="76.2734" x="206.2908" y="697.7002">* specialties</text></g><!--link Visit to Vet--><g class="link" data-entity-1="ent0007" data-entity-2="ent0006" data-link-type="dependency" data-source-line="47" id="lnk12"><path codeLine="47" d="M287.8532,499.1483 C287.8532,518.4083 287.8532,534.0183 287.8532,552.4783" fill="none" id="Visit-to-Vet" style="stroke:#2E7D32;stroke-width:1;"/><polygon fill="#2E7D32" points="287.8532,558.4783,291.8532,549.4783,287.8532,553.4783,283.8532,549.4783,287.8532,558.4783" style="stroke:#2E7D32;stroke-width:1;"/><text fill="#000000" font-family="sans-serif" font-size="13" lengthAdjust="spacing" textLength="6.2651" x="281.4848" y="519.5244">*</text><text fill="#000000" font-family="sans-serif" font-size="13" lengthAdjust="spacing" textLength="18.8335" x="268.5389" y="548.0172">vet</text></g><g class="caption" data-source-line="1"><text fill="#2E7D32" font-family="sans-serif" font-size="14" lengthAdjust="spacing" textLength="41.9658" x="1" y="818.3083">added</text><text fill="#000000" font-family="sans-serif" font-size="14" lengthAdjust="spacing" textLength="14.3281" x="47.3955" y="818.3083">or</text><text fill="#C62828" font-family="sans-serif" font-size="14" lengthAdjust="spacing" text-decoration="line-through" textLength="59.0557" x="66.1533" y="818.3083">removed</text><text fill="#000000" font-family="sans-serif" font-size="14" lengthAdjust="spacing" textLength="293.4736" x="129.6387" y="818.3083">&#8212; impacted + 2 neighbours (6 of 8 shown)</text></g><g class="footer" data-source-line="4"><text fill="#888888" font-family="sans-serif" font-size="10" lengthAdjust="spacing" textLength="358.4961" x="32.8081" y="832.9294">domain/*.java -&gt; petclinic-backend/docs/generated/DomainModel.puml</text></g><?plantuml-src jLLBRjim4Dth50DbqwPmbAX0uXg6WCBk8a1_WDDi32zeScHDBP42oJX8WnGzH4_OatGesQeGjuishZQYtimyllcGagBsP3ICfIcD7HsbRowcBzDCA8Lgd3HW1iPszibvEao7sTXb5Ykp2Kukwnn_VFiELDL2UbJm0bBGIAjYQMwiWsVdO78OWYlChNuUHPvyYJ0rbI0Dxup24WOmfJoFScCyMb2DAJa--Ims0WOPrEXbIPhaO2da6hLAb94kMQ56AtZ7f2Lhk4xgcwgC2b88MDN-3YgibcXTvDQaQs551R8KphtstjBonkEbD7f6Nn1EUox5NOsMjrn_qgfP8EIYTFWxbqae0HoTDa_KaCE7MvO6yxcpSfGa-_ePJveaGuh9XgGtDl6M4TAhN_x9jXGDNLEEKJgydvGar-0Dc1erS15H4SS_B1Pm7m6GWX5SQeyhjFoPatN-lQYGqHddh5SCiiWzZ5jlaRNt84bSmDwtnnBhmkXUtCCsuu_e3vSlasspVVMNsUf7IIt9-cBAGyBWMoD56TPzqLVSneCA3uIj-E6JjEyqpcgK94fknC5KTfIjpeidrbYXavRQwsHF_lKXv-9wDnTdP__d57IgoT4XTGUwVrIk7Wyl7qEgEkYArt_kGTHUHB49hnZ60xvDuw_7uKPrSHZ_A9nRHc9eJ9w7DzuTYzR6hht0JSY4GvkCej3SdSLjXugGpTs4HMqbsntcsx_C8eHi0YyJH3y1?></g></svg>